# xmcd CD Database Entry
#
# Track frame offsets:
# 150
# 15410
# 20299
# 37292
# 52743
# 54352
# 73708
# 94623
# 100032
# 111721
# 114168
# 130680
# 153509
# 175612
# 180378
# 201995
# 219684
# 237622
# 261399
#
# Disc length: 4616 seconds
#
# Revision: 1
# Processed by: cddbd v1.4PL0 Copyright (c) Steve Scherf et al.
# Submitted via: tcd 2.0b
#
DISCID=04120613
DTITLE=Deichkind - Bitte ziehen sie durch
DYEAR=1900
DGENRE=
TTITLE0=Fachjagon
TTITLE1=Da Mussu Plata
TTITLE2=Smogcity
TTITLE3=Bon Voyage feat. Nina
TTITLE4=Safari
TTITLE5=Evergreens
TTITLE6=was' der Anlass
TTITLE7=Lass es Raus
TTITLE8=Flammenmeer Teil.1
TTITLE9=Grünther
TTITLE10=T2Wei feat. Nico Svave and Dendemann
TTITLE11=Kobeljau Inferno Don Dougie Demix
TTITLE12=Weit Weg feat. Bintia
TTITLE13=Feature
TTITLE14=Schweiß und Tränen
TTITLE15=komm Schon!
TTITLE16=Imbissmief
TTITLE17=Rauf und wieder Runter
TTITLE18=Slangdaddy
EXTD=
EXTT0=
EXTT1=
EXTT2=
EXTT3=
EXTT4=
EXTT5=
EXTT6=
EXTT7=
EXTT8=
EXTT9=
EXTT10=
EXTT11=
EXTT12=
EXTT13=
EXTT14=
EXTT15=
EXTT16=
EXTT17=
EXTT18=
PLAYORDER=
